HIERARCHY
ROOT Hips
{
    OFFSET 0.0 0.0 0.0
    CHANNELS 6 Xposition Yposition Zposition Zrotation Xrotation Yrotation
    JOINT LeftHipJoint
    {
        OFFSET 0.1 0.0 0.0
        CHANNELS 3 Zrotation Xrotation Yrotation
        JOINT LeftUpLeg
        {
            OFFSET 0.1321068773616618 0.0 0.0
            CHANNELS 3 Zrotation Xrotation Yrotation
            JOINT LeftLeg
            {
                OFFSET 0.0 0.0 -0.423269771660271
                CHANNELS 3 Zrotation Xrotation Yrotation
                JOINT LeftFoot
                {
                    OFFSET 0.0 0.0 -0.37444640248764777
                    CHANNELS 3 Zrotation Xrotation Yrotation
                    End Site
                    {
                        OFFSET 0.0 -0.1 0.0
                    }
                }
            }
        }
    }
    JOINT LowerBack
    {
        OFFSET 0.0 0.0 0.1
        CHANNELS 3 Zrotation Xrotation Yrotation
        JOINT Spine
        {
            OFFSET 0.0 0.0 0.3378588931174977
            CHANNELS 3 Zrotation Xrotation Yrotation
            JOINT Spine1
            {
                OFFSET 0.0 0.0 0.3364985540896413
                CHANNELS 3 Zrotation Xrotation Yrotation
                JOINT LeftShoulder
                {
                    OFFSET 0.1 0.0 0.0
                    CHANNELS 3 Zrotation Xrotation Yrotation
                    JOINT LeftArm
                    {
                        OFFSET 0.22131666870481445 0.0 0.0
                        CHANNELS 3 Zrotation Xrotation Yrotation
                        JOINT LeftForeArm
                        {
                            OFFSET 0.33532911951699784 0.0 0.0
                            CHANNELS 3 Zrotation Xrotation Yrotation
                            JOINT LeftHand
                            {
                                OFFSET 0.2810766116187594 0.0 0.0
                                CHANNELS 3 Zrotation Xrotation Yrotation
                                End Site
                                {
                                    OFFSET 0.1 0.0 0.0
                                }
                            }
                        }
                    }
                }
                JOINT Neck
                {
                    OFFSET 0.0 0.0 0.1
                    CHANNELS 3 Zrotation Xrotation Yrotation
                    JOINT Neck1
                    {
                        OFFSET 0.0 0.0 0.184724441947301
                        CHANNELS 3 Zrotation Xrotation Yrotation
                        End Site
                        {
                            OFFSET 0.0 0.0 0.17504727433689293
                        }
                    }
                }
                JOINT RightShoulder
                {
                    OFFSET -0.1 0.0 0.0
                    CHANNELS 3 Zrotation Xrotation Yrotation
                    JOINT RightArm
                    {
                        OFFSET -0.22131666870481445 0.0 0.0
                        CHANNELS 3 Zrotation Xrotation Yrotation
                        JOINT RightForeArm
                        {
                            OFFSET -0.33532911951699784 0.0 0.0
                            CHANNELS 3 Zrotation Xrotation Yrotation
                            JOINT RightHand
                            {
                                OFFSET -0.2810766116187594 0.0 0.0
                                CHANNELS 3 Zrotation Xrotation Yrotation
                                End Site
                                {
                                    OFFSET -0.1 0.0 0.0
                                }
                            }
                        }
                    }
                }
            }
        }
    }
    JOINT RightHipJoint
    {
        OFFSET -0.1 0.0 0.0
        CHANNELS 3 Zrotation Xrotation Yrotation
        JOINT RightUpLeg
        {
            OFFSET -0.1321068773616618 0.0 0.0
            CHANNELS 3 Zrotation Xrotation Yrotation
            JOINT RightLeg
            {
                OFFSET 0.0 0.0 -0.423269771660271
                CHANNELS 3 Zrotation Xrotation Yrotation
                JOINT RightFoot
                {
                    OFFSET 0.0 0.0 -0.37444640248764777
                    CHANNELS 3 Zrotation Xrotation Yrotation
                    End Site
                    {
                        OFFSET 0.0 -0.1 0.0
                    }
                }
            }
        }
    }
}
MOTION
Frames: 4
Frame Time: 0.03333333333333333
0.08718737959861755 -0.09834112226963043 -1.204331406120614e-17 19.608391172880445 -80.92902051681051 20.348118435269527 -1.987846675914698e-16 0.0 0.0 5.861873337950467 9.556303128993381 0.8798484168416574 0.11032617129392476 -2.7944286686637247 0.9402180356031196 -7.951386703658792e-16 0.0 0.0 -1.987846675914698e-16 0.0 0.0 0.12251557416217713 6.8988999417099155 -1.0092031009938085 -2.7600903715662684 1.5899094054327022e-15 4.1074352496425267e-16 -7.193848510820211e-41 3.0332133116374176e-21 2.717759127227126e-18 -29.995189059067094 14.072323834538874 85.49769323990836 -28.960495322116955 -7.952856969833276e-16 3.0795208623994153e-15 -6.3611093629270335e-15 0.0 0.0 -7.193848510820211e-41 3.0332133116374176e-21 2.717759127227126e-18 -4.184963370445293 2.4800014375177417 0.46044247353231066 -7.193848510820211e-41 3.0332133116374176e-21 2.717759127227126e-18 41.87187516501204 15.7386651246032 -84.99739314359925 22.484909643002773 -4.998876523969129e-15 7.479215075951904e-15 0.0 0.0 0.0 -1.987846675914698e-16 0.0 0.0 -5.760052806813775 4.506739502978678 -4.363356307630448 0.056533679094898974 5.361858251465006 6.181524711041021 0.0 0.0 0.0
0.07800373435020447 -0.0998053029179573 0.0010203125420957682 21.615947733712563 -81.06712315022101 21.831868207679307 -1.987846675914698e-16 0.0 0.0 6.5805307082529785 9.250866515361237 0.31698287212735715 0.08274697041168938 -1.5251320316682464 1.4522461530758308 0.0 0.0 0.0 -1.987846675914698e-16 0.0 0.0 0.10444954793651344 7.105183849928625 -1.1850186981748274 -3.037877407217603 4.1532287011171115e-15 3.586980708137555e-16 0.0 0.0 0.0 -30.200293200609053 14.212960968721955 85.3736491118509 -29.03714457098746 2.3920361470230476e-15 -9.236964642530066e-15 6.3611093629270335e-15 1.7655625192200634e-31 3.1805546814635168e-15 0.0 0.0 0.0 -5.273915283603856 2.4613830851944094 0.852471224419911 0.0 0.0 0.0 41.87493594901773 15.536334815642395 -84.79262594170116 22.254978018129243 2.506936867390128e-15 -3.734584810454725e-15 0.0 0.0 0.0 -1.987846675914698e-16 0.0 0.0 -6.534129243867318 4.142566600008533 -3.2902570246163076 0.1750092105895067 6.1909242707707905 4.2306032437711725 3.975693351829396e-16 0.0 0.0
0.06864333152770996 -0.10190919786691666 0.0006262664683163041 23.981996797514473 -80.85977127767775 23.702601273709202 0.0 0.0 0.0 6.312017571891962 8.400820571647294 -0.08146170228910414 -0.018400894095459065 0.276801307927681 1.9399402072532848 4.3794226550966417e-32 6.311413196029165e-15 -7.951386703658791e-16 0.0 0.0 0.0 0.077011444248844 6.951199821801887 -1.431258463326302 -3.3306257010595917 -3.647804568621151e-15 -6.619676123353073e-18 -9.93923337957349e-17 8.620910738379216e-35 -9.93923337957349e-17 -30.50341177361485 14.368375431376117 85.36224947596628 -29.02744643418045 1.151913793909353e-14 6.267394875894404e-15 6.3611093629270335e-15 0.0 0.0 -9.93923337957349e-17 8.620910738379216e-35 -9.93923337957349e-17 -6.028785241508565 2.491684952866045 1.233759264210574 -9.93923337957349e-17 8.620910738379216e-35 -9.93923337957349e-17 42.60494912353785 15.333542361945003 -84.7245351029603 21.72205095774821 1.0269700964250634e-14 2.887461346042388e-15 0.0 0.0 0.0 0.0 0.0 0.0 -6.349680379465997 3.7325133619704487 -2.3711015787376533 0.2844481965375976 6.621824929497646 2.358428978105493 -1.987846675914698e-16 0.0 0.0
0.05984146520495415 -0.10374492406845093 0.0005050757899880282 25.716616365824652 -80.7451085323929 24.953880753651642 0.0 0.0 0.0 6.239715303425553 7.677936843641192 -0.4631130630624805 -0.16058287807675092 1.974863026540603 2.360423092066625 7.951386703658792e-16 0.0 0.0 0.0 0.0 0.0 0.03710083887541656 7.01177464431469 -1.672314234778648 -3.4300899661535293 1.0009866791347016e-15 1.0243404478553999e-15 -1.1034765745125397e-32 6.361109362927032e-15 1.9878466759146975e-16 -31.179003345832673 14.30115429872584 85.23307894644732 -28.869021372641967 -7.928271830739462e-16 3.080154726561399e-15 0.0 0.0 3.1805546814635168e-15 -1.1034765745125397e-32 6.361109362927032e-15 1.9878466759146975e-16 -6.422123092781857 2.2891051698063123 1.588884399982578 -1.1034765745125397e-32 6.361109362927032e-15 1.9878466759146975e-16 43.11707231402454 14.89000553655822 -84.47676470990719 21.020866331085053 -1.966831398266497e-15 6.834560312096932e-15 0.0 0.0 3.1805546814635168e-15 0.0 0.0 0.0 -6.31422901692865 3.707190081191382 -1.649006662127125 0.32803749012244837 6.271087421082967 0.9749068111632386 4.969616689786745e-17 0.0 0.0
